<svg width="250" height="250" viewBox="0 0 250 250" fill="none" xmlns="http://www.w3.org/2000/svg">
<circle cx="125" cy="125" r="125" fill="#F6E9FE"/>
<g filter="url(#filter0_d_1272_4991)">
<ellipse cx="187.63" cy="79.5792" rx="22.9685" ry="22.0258" transform="rotate(0.387926 187.63 79.5792)" fill="#921DDA"/>
<ellipse cx="187.642" cy="77.6935" rx="22.9685" ry="22.0258" transform="rotate(0.387926 187.642 77.6935)" fill="#B34DF3"/>
<path fill-rule="evenodd" clip-rule="evenodd" d="M166.885 67.7545C171.048 60.4771 178.82 55.6076 187.688 55.6676C197.123 55.7315 205.24 61.3571 209.058 69.4677C204.896 76.7451 197.124 81.6146 188.256 81.5545C178.821 81.4906 170.703 75.865 166.885 67.7545Z" fill="#FAFAFA" fill-opacity="0.4"/>
<path d="M206.036 77.8179C205.97 87.4975 197.721 95.3596 187.523 95.2906C177.325 95.2215 169.184 87.2484 169.249 77.5688C169.315 67.8892 177.563 60.0271 187.761 60.0961C197.96 60.1652 206.101 68.1383 206.036 77.8179Z" fill="#B34DF3" stroke="#921DDA" stroke-width="2"/>
<mask id="path-6-inside-1_1272_4991" fill="white">
<path fill-rule="evenodd" clip-rule="evenodd" d="M207.032 77.8247C207.035 77.7107 207.037 77.5964 207.038 77.4819C207.107 67.2109 198.481 58.8259 187.771 58.7534C177.06 58.6809 168.321 66.9483 168.252 77.2193C168.251 77.3338 168.251 77.4481 168.252 77.5621C168.512 67.4506 177.175 59.3673 187.766 59.439C198.357 59.5107 206.91 67.7106 207.032 77.8247Z"/>
</mask>
<path fill-rule="evenodd" clip-rule="evenodd" d="M207.032 77.8247C207.035 77.7107 207.037 77.5964 207.038 77.4819C207.107 67.2109 198.481 58.8259 187.771 58.7534C177.06 58.6809 168.321 66.9483 168.252 77.2193C168.251 77.3338 168.251 77.4481 168.252 77.5621C168.512 67.4506 177.175 59.3673 187.766 59.439C198.357 59.5107 206.91 67.7106 207.032 77.8247Z" fill="#B34DF3"/>
<path d="M207.032 77.8247L202.033 77.8851L212.031 77.9527L207.032 77.8247ZM168.252 77.5621L163.253 77.6225L173.251 77.6902L168.252 77.5621ZM202.038 77.448C202.037 77.5311 202.036 77.614 202.034 77.6967L212.031 77.9527C212.034 77.8073 212.037 77.6617 212.038 77.5157L202.038 77.448ZM187.737 63.7533C195.886 63.8084 202.088 70.1339 202.038 77.448L212.038 77.5157C212.127 64.288 201.077 53.8434 187.804 53.7535L187.737 63.7533ZM173.251 77.2531C173.301 69.939 179.588 63.6981 187.737 63.7533L187.804 53.7535C174.532 53.6636 163.341 63.9577 163.252 77.1854L173.251 77.2531ZM173.252 77.5017C173.251 77.4191 173.251 77.3362 173.251 77.2531L163.252 77.1854C163.251 77.3314 163.251 77.4771 163.253 77.6225L173.252 77.5017ZM173.251 77.6902C173.435 70.4875 179.677 64.3843 187.732 64.4389L187.8 54.4391C174.673 54.3502 163.588 64.4137 163.254 77.434L173.251 77.6902ZM187.732 64.4389C195.788 64.4934 201.946 70.6806 202.033 77.8851L212.032 77.7643C211.875 64.7407 200.927 54.528 187.8 54.4391L187.732 64.4389Z" fill="#921DDA" mask="url(#path-6-inside-1_1272_4991)"/>
</g>
<rect x="-3.92877" y="-1.40706" width="134.978" height="44.5474" rx="3.5" transform="matrix(0.971473 -0.23715 0.600034 0.799974 55.7322 138.995)" fill="#44B594"/>
<rect x="-3.92877" y="-1.40706" width="134.978" height="44.5474" rx="3.5" transform="matrix(0.971473 -0.23715 0.600034 0.799974 55.7322 138.995)" stroke="#40AB8C" stroke-width="5"/>
<rect x="-3.92877" y="-1.40706" width="134.978" height="44.5474" rx="3.5" transform="matrix(0.971473 -0.23715 0.600034 0.799974 55.7322 138.995)" stroke="black" stroke-opacity="0.2" stroke-width="5"/>
<ellipse cx="14.7181" cy="14.8403" rx="14.7181" ry="14.8403" transform="matrix(0.904158 -0.427198 0.878458 0.47782 103.075 139.959)" fill="#6DFFDD"/>
<ellipse cx="14.7181" cy="14.8403" rx="14.7181" ry="14.8403" transform="matrix(0.904158 -0.427198 0.878458 0.47782 103.075 139.959)" fill="black" fill-opacity="0.1"/>
<rect x="-3.92877" y="-1.40706" width="134.978" height="44.5474" rx="3.5" transform="matrix(0.971473 -0.23715 0.600034 0.799974 55.7322 128.534)" fill="#44B594"/>
<rect x="-3.92877" y="-1.40706" width="134.978" height="44.5474" rx="3.5" transform="matrix(0.971473 -0.23715 0.600034 0.799974 55.7322 128.534)" stroke="#40AB8C" stroke-width="5"/>
<rect x="-3.92877" y="-1.40706" width="134.978" height="44.5474" rx="3.5" transform="matrix(0.971473 -0.23715 0.600034 0.799974 55.7322 128.534)" stroke="black" stroke-opacity="0.2" stroke-width="5"/>
<ellipse cx="14.7181" cy="14.8403" rx="14.7181" ry="14.8403" transform="matrix(0.904158 -0.427198 0.878458 0.47782 103.075 129.498)" fill="#6DFFDD"/>
<ellipse cx="14.7181" cy="14.8403" rx="14.7181" ry="14.8403" transform="matrix(0.904158 -0.427198 0.878458 0.47782 103.075 129.498)" fill="black" fill-opacity="0.1"/>
<rect x="-3.92877" y="-1.40706" width="134.978" height="44.5474" rx="3.5" transform="matrix(0.971473 -0.23715 0.600034 0.799974 55.7322 118.072)" fill="#44B594"/>
<rect x="-3.92877" y="-1.40706" width="134.978" height="44.5474" rx="3.5" transform="matrix(0.971473 -0.23715 0.600034 0.799974 55.7322 118.072)" stroke="#40AB8C" stroke-width="5"/>
<rect x="-3.92877" y="-1.40706" width="134.978" height="44.5474" rx="3.5" transform="matrix(0.971473 -0.23715 0.600034 0.799974 55.7322 118.072)" stroke="black" stroke-opacity="0.2" stroke-width="5"/>
<ellipse cx="14.7181" cy="14.8403" rx="14.7181" ry="14.8403" transform="matrix(0.904158 -0.427198 0.878458 0.47782 103.075 119.036)" fill="#6DFFDD"/>
<ellipse cx="14.7181" cy="14.8403" rx="14.7181" ry="14.8403" transform="matrix(0.904158 -0.427198 0.878458 0.47782 103.075 119.036)" fill="black" fill-opacity="0.1"/>
<rect x="-3.92877" y="-1.40706" width="134.978" height="44.5474" rx="3.5" transform="matrix(0.971473 -0.23715 0.600034 0.799974 55.7322 107.611)" fill="#44B594"/>
<rect x="-3.92877" y="-1.40706" width="134.978" height="44.5474" rx="3.5" transform="matrix(0.971473 -0.23715 0.600034 0.799974 55.7322 107.611)" stroke="#40AB8C" stroke-width="5"/>
<rect x="-3.92877" y="-1.40706" width="134.978" height="44.5474" rx="3.5" transform="matrix(0.971473 -0.23715 0.600034 0.799974 55.7322 107.611)" stroke="black" stroke-opacity="0.2" stroke-width="5"/>
<ellipse cx="14.7181" cy="14.8403" rx="14.7181" ry="14.8403" transform="matrix(0.904158 -0.427198 0.878458 0.47782 103.075 108.575)" fill="#6DFFDD"/>
<ellipse cx="14.7181" cy="14.8403" rx="14.7181" ry="14.8403" transform="matrix(0.904158 -0.427198 0.878458 0.47782 103.075 108.575)" fill="black" fill-opacity="0.1"/>
<g filter="url(#filter1_d_1272_4991)">
<ellipse cx="68.8841" cy="179.909" rx="22.9685" ry="22.0258" transform="rotate(5.23956 68.8841 179.909)" fill="#921DDA"/>
<ellipse cx="69.0562" cy="178.031" rx="22.9685" ry="22.0258" transform="rotate(5.23956 69.0562 178.031)" fill="#B34DF3"/>
<path fill-rule="evenodd" clip-rule="evenodd" d="M49.2144 166.373C53.9777 159.473 62.1333 155.279 70.9648 156.088C80.36 156.95 87.9731 163.242 91.0912 171.646C86.328 178.546 78.1723 182.74 69.3409 181.931C59.9457 181.069 52.3326 174.777 49.2144 166.373Z" fill="#FAFAFA" fill-opacity="0.4"/>
<path d="M87.373 179.711C86.489 189.35 77.605 196.487 67.4491 195.555C57.2933 194.624 49.8554 185.991 50.7394 176.351C51.6233 166.712 60.5074 159.576 70.6632 160.507C80.819 161.438 88.2569 170.072 87.373 179.711Z" fill="#B34DF3" stroke="#921DDA" stroke-width="2"/>
<mask id="path-20-inside-2_1272_4991" fill="white">
<path fill-rule="evenodd" clip-rule="evenodd" d="M88.3655 179.802C88.3781 179.688 88.3896 179.574 88.4 179.46C89.338 169.232 81.4518 160.148 70.7858 159.169C60.1197 158.191 50.7128 165.69 49.7748 175.918C49.7643 176.032 49.755 176.146 49.7467 176.26C50.8601 166.207 60.176 158.885 70.7231 159.852C81.2703 160.819 89.0992 169.713 88.3655 179.802Z"/>
</mask>
<path fill-rule="evenodd" clip-rule="evenodd" d="M88.3655 179.802C88.3781 179.688 88.3896 179.574 88.4 179.46C89.338 169.232 81.4518 160.148 70.7858 159.169C60.1197 158.191 50.7128 165.69 49.7748 175.918C49.7643 176.032 49.755 176.146 49.7467 176.26C50.8601 166.207 60.176 158.885 70.7231 159.852C81.2703 160.819 89.0992 169.713 88.3655 179.802Z" fill="#B34DF3"/>
<path d="M88.3655 179.802L83.3787 179.439L93.3351 180.352L88.3655 179.802ZM49.7467 176.26L44.7599 175.897L54.7163 176.81L49.7467 176.26ZM83.4209 179.004C83.4133 179.087 83.405 179.169 83.3959 179.251L93.3351 180.352C93.3511 180.207 93.3658 180.062 93.3791 179.917L83.4209 179.004ZM70.3292 164.149C78.4441 164.893 84.0889 171.72 83.4209 179.004L93.3791 179.917C94.5871 166.744 84.4596 155.402 71.2424 154.19L70.3292 164.149ZM54.7539 176.375C55.4219 169.091 62.2142 163.404 70.3292 164.149L71.2424 154.19C58.0251 152.978 46.0037 162.289 44.7957 175.462L54.7539 176.375ZM54.7335 176.623C54.7395 176.54 54.7463 176.458 54.7539 176.375L44.7957 175.462C44.7824 175.607 44.7704 175.752 44.7599 175.897L54.7335 176.623ZM54.7163 176.81C55.5094 169.649 62.2446 164.096 70.2665 164.831L71.1797 154.873C58.1074 153.674 46.2107 162.764 44.7771 175.71L54.7163 176.81ZM70.2665 164.831C78.2885 165.567 83.9013 172.253 83.3787 179.439L93.3523 180.164C94.2971 167.174 84.2521 156.072 71.1797 154.873L70.2665 164.831Z" fill="#921DDA" mask="url(#path-20-inside-2_1272_4991)"/>
</g>
<defs>
<filter id="filter0_d_1272_4991" x="140.512" y="42.5127" width="94.2471" height="94.2471" filterUnits="userSpaceOnUse" color-interpolation-filters="sRGB">
<feFlood flood-opacity="0" result="BackgroundImageFix"/>
<feColorMatrix in="SourceAlpha" type="matrix" values="0 0 0 0 0 0 0 0 0 0 0 0 0 0 0 0 0 0 127 0" result="hardAlpha"/>
<feOffset dy="11"/>
<feGaussianBlur stdDeviation="12"/>
<feComposite in2="hardAlpha" operator="out"/>
<feColorMatrix type="matrix" values="0 0 0 0 0.0791667 0 0 0 0 0.0791667 0 0 0 0 0.0791667 0 0 0 0.15 0"/>
<feBlend mode="normal" in2="BackgroundImageFix" result="effect1_dropShadow_1272_4991"/>
<feBlend mode="normal" in="SourceGraphic" in2="effect1_dropShadow_1272_4991" result="shape"/>
</filter>
<filter id="filter1_d_1272_4991" x="20" y="141" width="97.9402" height="97.9404" filterUnits="userSpaceOnUse" color-interpolation-filters="sRGB">
<feFlood flood-opacity="0" result="BackgroundImageFix"/>
<feColorMatrix in="SourceAlpha" type="matrix" values="0 0 0 0 0 0 0 0 0 0 0 0 0 0 0 0 0 0 127 0" result="hardAlpha"/>
<feOffset dy="11"/>
<feGaussianBlur stdDeviation="12"/>
<feComposite in2="hardAlpha" operator="out"/>
<feColorMatrix type="matrix" values="0 0 0 0 0.0791667 0 0 0 0 0.0791667 0 0 0 0 0.0791667 0 0 0 0.25 0"/>
<feBlend mode="normal" in2="BackgroundImageFix" result="effect1_dropShadow_1272_4991"/>
<feBlend mode="normal" in="SourceGraphic" in2="effect1_dropShadow_1272_4991" result="shape"/>
</filter>
</defs>
</svg>
