<svg width="250" height="250" viewBox="0 0 250 250" fill="none" xmlns="http://www.w3.org/2000/svg">
<circle cx="125" cy="125" r="125" fill="#F4FDF4"/>
<rect x="78" y="91.5283" width="91.6149" height="64.2857" rx="5" fill="#53D0AC"/>
<rect x="86.3845" y="100.224" width="91.6149" height="64.2857" rx="5" fill="#3C9B7F"/>
<rect x="86.3845" y="100.224" width="72.3602" height="44.0994" rx="5" fill="#D398F8"/>
<g filter="url(#filter0_d_1438_5967)">
<path d="M116.125 117.11C115.051 113.009 118.144 109 122.383 109C126.374 109 129.413 112.578 128.768 116.516L126.012 133.319C125.786 134.697 124.596 135.708 123.2 135.708C121.904 135.708 120.771 134.834 120.442 133.58L116.125 117.11Z" fill="white"/>
</g>
<g filter="url(#filter1_d_1438_5967)">
<ellipse cx="185.91" cy="94.5388" rx="22.9685" ry="22.0258" transform="rotate(-16.8357 185.91 94.5388)" fill="#921DDA"/>
<ellipse cx="185.363" cy="92.7341" rx="22.9685" ry="22.0258" transform="rotate(-16.8357 185.363 92.7341)" fill="#B34DF3"/>
<path fill-rule="evenodd" clip-rule="evenodd" d="M162.594 89.3869C164.416 81.2033 170.397 74.251 178.885 71.6824C187.915 68.9499 197.335 71.9195 203.383 78.5359C201.562 86.7195 195.581 93.6718 187.092 96.2404C178.062 98.9729 168.643 96.0033 162.594 89.3869Z" fill="#FAFAFA" fill-opacity="0.4"/>
<path d="M202.969 87.407C205.772 96.672 200.221 106.624 190.46 109.578C180.699 112.532 170.562 107.327 167.758 98.0617C164.955 88.7967 170.505 78.8447 180.267 75.891C190.028 72.9372 200.165 78.1421 202.969 87.407Z" fill="#B34DF3" stroke="#921DDA" stroke-width="2"/>
<mask id="path-10-inside-1_1438_5967" fill="white">
<path fill-rule="evenodd" clip-rule="evenodd" d="M203.923 87.1183C203.892 87.0086 203.86 86.8989 203.826 86.7893C200.852 76.9583 190.129 71.5035 179.878 74.6057C169.626 77.7079 163.727 88.1922 166.702 98.0232C166.735 98.1328 166.769 98.2419 166.804 98.3504C164.057 88.6156 169.939 78.3295 180.076 75.2619C190.214 72.1944 200.811 77.494 203.923 87.1183Z"/>
</mask>
<path fill-rule="evenodd" clip-rule="evenodd" d="M203.923 87.1183C203.892 87.0086 203.86 86.8989 203.826 86.7893C200.852 76.9583 190.129 71.5035 179.878 74.6057C169.626 77.7079 163.727 88.1922 166.702 98.0232C166.735 98.1328 166.769 98.2419 166.804 98.3504C164.057 88.6156 169.939 78.3295 180.076 75.2619C190.214 72.1944 200.811 77.494 203.923 87.1183Z" fill="#B34DF3"/>
<path d="M203.923 87.1183L199.165 88.6564L208.735 85.7606L203.923 87.1183ZM166.804 98.3504L162.046 99.8885L171.616 96.9927L166.804 98.3504ZM199.041 88.2374C199.065 88.317 199.088 88.3965 199.111 88.4761L208.735 85.7606C208.695 85.6206 208.654 85.4808 208.612 85.3411L199.041 88.2374ZM181.326 79.3914C189.125 77.0312 196.922 81.2366 199.041 88.2374L208.612 85.3411C204.781 72.6801 191.133 65.9759 178.429 69.82L181.326 79.3914ZM171.487 96.575C169.369 89.5742 173.526 81.7516 181.326 79.3914L178.429 69.82C165.726 73.6642 158.085 86.8102 161.916 99.4713L171.487 96.575ZM171.562 96.8123C171.536 96.7337 171.511 96.6546 171.487 96.575L161.916 99.4713C161.958 99.611 162.002 99.75 162.046 99.8885L171.562 96.8123ZM171.616 96.9927C169.66 90.0584 173.814 82.3808 181.524 80.0476L178.628 70.4763C166.063 74.2783 158.455 87.1728 161.992 99.7081L171.616 96.9927ZM181.524 80.0476C189.235 77.7145 196.949 81.8008 199.165 88.6564L208.68 85.5803C204.674 73.1872 191.193 66.6742 178.628 70.4763L181.524 80.0476Z" fill="#921DDA" mask="url(#path-10-inside-1_1438_5967)"/>
</g>
<g filter="url(#filter2_d_1438_5967)">
<ellipse cx="77.6634" cy="165.896" rx="22.9685" ry="22.0258" transform="rotate(22.5704 77.6634 165.896)" fill="#921DDA"/>
<ellipse cx="78.387" cy="164.155" rx="22.9685" ry="22.0258" transform="rotate(22.5704 78.387 164.155)" fill="#B34DF3"/>
<path fill-rule="evenodd" clip-rule="evenodd" d="M62.9192 147.114C69.5214 141.947 78.5564 140.372 86.7456 143.776C95.4577 147.397 100.851 155.672 101.324 164.623C94.7216 169.79 85.6866 171.365 77.4974 167.961C68.7853 164.34 63.3922 156.066 62.9192 147.114Z" fill="#FAFAFA" fill-opacity="0.4"/>
<path d="M95.3719 171.215C91.6566 180.153 81.0501 184.319 71.6328 180.405C62.2154 176.49 57.6869 166.034 61.4022 157.095C65.1175 148.157 75.7241 143.991 85.1414 147.905C94.5587 151.819 99.0872 162.276 95.3719 171.215Z" fill="#B34DF3" stroke="#921DDA" stroke-width="2"/>
<mask id="path-16-inside-2_1438_5967" fill="white">
<path fill-rule="evenodd" clip-rule="evenodd" d="M96.2924 171.597C96.3381 171.492 96.383 171.387 96.4269 171.281C100.369 161.797 95.5472 150.775 85.6568 146.664C75.7663 142.553 64.5527 146.909 60.6104 156.394C60.5665 156.5 60.5236 156.606 60.4818 156.712C64.5394 147.446 75.6134 143.232 85.3936 147.297C95.1738 151.363 99.9979 162.185 96.2924 171.597Z"/>
</mask>
<path fill-rule="evenodd" clip-rule="evenodd" d="M96.2924 171.597C96.3381 171.492 96.383 171.387 96.4269 171.281C100.369 161.797 95.5472 150.775 85.6568 146.664C75.7663 142.553 64.5527 146.909 60.6104 156.394C60.5665 156.5 60.5236 156.606 60.4818 156.712C64.5394 147.446 75.6134 143.232 85.3936 147.297C95.1738 151.363 99.9979 162.185 96.2924 171.597Z" fill="#B34DF3"/>
<path d="M96.2924 171.597L91.64 169.765L100.872 173.602L96.2924 171.597ZM60.4818 156.712L55.8294 154.88L65.0619 158.717L60.4818 156.712ZM91.8099 169.362C91.778 169.439 91.7454 169.515 91.7123 169.591L100.872 173.602C100.931 173.469 100.988 173.335 101.044 173.2L91.8099 169.362ZM83.7377 151.281C91.2625 154.409 94.6173 162.608 91.8099 169.362L101.044 173.2C106.121 160.985 99.832 147.142 87.5759 142.047L83.7377 151.281ZM65.2275 158.313C68.0348 151.559 76.2129 148.154 83.7377 151.281L87.5759 142.047C75.3198 136.953 61.0705 142.26 55.9934 154.475L65.2275 158.313ZM65.1342 158.543C65.1645 158.467 65.1956 158.39 65.2275 158.313L55.9934 154.475C55.9374 154.61 55.8827 154.745 55.8294 154.88L65.1342 158.543ZM65.0619 158.717C67.9522 152.118 76.0359 148.823 83.4745 151.915L87.3127 142.68C75.191 137.642 61.1266 142.775 55.9018 154.706L65.0619 158.717ZM83.4745 151.915C90.9132 155.006 94.2795 163.061 91.64 169.765L100.945 173.428C105.716 161.309 99.4345 147.719 87.3127 142.68L83.4745 151.915Z" fill="#921DDA" mask="url(#path-16-inside-2_1438_5967)"/>
</g>
<defs>
<filter id="filter0_d_1438_5967" x="101.911" y="100" width="44.9436" height="58.708" filterUnits="userSpaceOnUse" color-interpolation-filters="sRGB">
<feFlood flood-opacity="0" result="BackgroundImageFix"/>
<feColorMatrix in="SourceAlpha" type="matrix" values="0 0 0 0 0 0 0 0 0 0 0 0 0 0 0 0 0 0 127 0" result="hardAlpha"/>
<feOffset dx="2" dy="7"/>
<feGaussianBlur stdDeviation="8"/>
<feComposite in2="hardAlpha" operator="out"/>
<feColorMatrix type="matrix" values="0 0 0 0 0 0 0 0 0 0 0 0 0 0 0 0 0 0 0.25 0"/>
<feBlend mode="normal" in2="BackgroundImageFix" result="effect1_dropShadow_1438_5967"/>
<feBlend mode="normal" in="SourceGraphic" in2="effect1_dropShadow_1438_5967" result="shape"/>
</filter>
<filter id="filter1_d_1438_5967" x="133" y="52" width="105.273" height="105.272" filterUnits="userSpaceOnUse" color-interpolation-filters="sRGB">
<feFlood flood-opacity="0" result="BackgroundImageFix"/>
<feColorMatrix in="SourceAlpha" type="matrix" values="0 0 0 0 0 0 0 0 0 0 0 0 0 0 0 0 0 0 127 0" result="hardAlpha"/>
<feOffset dy="11"/>
<feGaussianBlur stdDeviation="12"/>
<feComposite in2="hardAlpha" operator="out"/>
<feColorMatrix type="matrix" values="0 0 0 0 0.0791667 0 0 0 0 0.0791667 0 0 0 0 0.0791667 0 0 0 0.25 0"/>
<feBlend mode="normal" in2="BackgroundImageFix" result="effect1_dropShadow_1438_5967"/>
<feBlend mode="normal" in="SourceGraphic" in2="effect1_dropShadow_1438_5967" result="shape"/>
</filter>
<filter id="filter2_d_1438_5967" x="24" y="122" width="108.05" height="108.05" filterUnits="userSpaceOnUse" color-interpolation-filters="sRGB">
<feFlood flood-opacity="0" result="BackgroundImageFix"/>
<feColorMatrix in="SourceAlpha" type="matrix" values="0 0 0 0 0 0 0 0 0 0 0 0 0 0 0 0 0 0 127 0" result="hardAlpha"/>
<feOffset dy="11"/>
<feGaussianBlur stdDeviation="12"/>
<feComposite in2="hardAlpha" operator="out"/>
<feColorMatrix type="matrix" values="0 0 0 0 0.0791667 0 0 0 0 0.0791667 0 0 0 0 0.0791667 0 0 0 0.25 0"/>
<feBlend mode="normal" in2="BackgroundImageFix" result="effect1_dropShadow_1438_5967"/>
<feBlend mode="normal" in="SourceGraphic" in2="effect1_dropShadow_1438_5967" result="shape"/>
</filter>
</defs>
</svg>
