<svg width="250" height="250" viewBox="0 0 250 250" fill="none" xmlns="http://www.w3.org/2000/svg">
<circle cx="125" cy="125" r="125" fill="#FFF7E6"/>
<path d="M112.544 60.3478C99.3637 54.3478 85.0853 48.2826 79.5937 46L73.0037 48.6087L109.661 60.3478L112.544 61" stroke="url(#paint0_linear_1275_4866)"/>
<path d="M99.391 29C103.098 32.2609 117.56 47.6845 145.567 78.9888L151.699 91.9348L140.99 96.5L130.694 80.1957L128.634 75.6304L87.0348 77.913L89.0942 68.1304L124.515 70.7391L122.456 69.1087L75.5023 61.9348L81.6804 56.0652L117.925 61.2826L94.8604 49.8696L101.862 47.2609L89.0942 36.5L99.391 29Z" fill="#63B13E"/>
<path d="M145.567 78.9888C117.56 47.6845 103.098 32.2609 99.391 29L89.0942 36.5L101.862 47.2609L94.8604 49.8696L117.925 61.2826L81.6804 56.0652L75.5023 61.9348L122.456 69.1087L124.515 70.7391L89.0942 68.1304L87.0348 77.913L128.634 75.6304L130.694 80.1957L140.99 96.5L151.699 91.9348L145.521 78.8913" stroke="url(#paint1_linear_1275_4866)"/>
<path d="M152 62.3478C162.435 56.3478 173.739 50.2826 178.087 48L183.304 50.6087L154.283 62.3478L152 63" stroke="url(#paint2_linear_1275_4866)"/>
<path d="M162.413 31C159.478 34.2609 148.029 49.6845 125.855 80.9888L121 93.9348L129.478 98.5L137.63 82.1957L139.261 77.6304L172.196 79.913L170.565 70.1304L142.522 72.7391L144.152 71.1087L181.326 63.9348L176.435 58.0652L147.739 63.2826L166 51.8696L160.457 49.2609L170.565 38.5L162.413 31Z" fill="#63B13E"/>
<path d="M125.855 80.9888C148.029 49.6845 159.478 34.2609 162.413 31L170.565 38.5L160.457 49.2609L166 51.8696L147.739 63.2826L176.435 58.0652L181.326 63.9348L144.152 71.1087L142.522 72.7391L170.565 70.1304L172.196 79.913L139.261 77.6304L137.63 82.1957L129.478 98.5L121 93.9348L125.891 80.8913" stroke="url(#paint3_linear_1275_4866)"/>
<circle cx="134.5" cy="79.5" r="8.5" fill="#F94F46"/>
<circle cx="130.5" cy="75.5" r="1.5" fill="#FF746C"/>
<g filter="url(#filter0_d_1275_4866)">
<circle cx="148.5" cy="78.5049" r="8.5" fill="#FF7428"/>
</g>
<circle cx="152.5" cy="74.5" r="1.5" fill="#FF8D4F"/>
<rect x="142.683" y="69.127" width="2" height="4" transform="rotate(-34.0934 142.683 69.127)" fill="url(#paint4_linear_1275_4866)"/>
<rect x="137.246" y="68" width="2" height="4" transform="rotate(18.1472 137.246 68)" fill="url(#paint5_linear_1275_4866)"/>
<g filter="url(#filter1_d_1275_4866)">
<circle cx="162.5" cy="77.499" r="8.5" fill="#FF7428"/>
</g>
<circle cx="166.5" cy="73.4941" r="1.5" fill="#FF8D4F"/>
<rect x="156.683" y="68.1211" width="2" height="4" transform="rotate(-34.0934 156.683 68.1211)" fill="url(#paint6_linear_1275_4866)"/>
<ellipse cx="18.9519" cy="56.0554" rx="18.9519" ry="56.0554" transform="matrix(0.930263 -0.366893 0.242458 0.970162 81 45.9062)" fill="#EFB940"/>
<ellipse cx="104.081" cy="57.0995" rx="6" ry="1" transform="rotate(-10.7328 104.081 57.0995)" fill="#D9D9D9"/>
<ellipse cx="104.935" cy="61.6368" rx="11.7571" ry="1.5" transform="rotate(-10.7328 104.935 61.6368)" fill="#D9D9D9"/>
<ellipse cx="106.081" cy="67.0995" rx="6" ry="1" transform="rotate(-10.7328 106.081 67.0995)" fill="#D9D9D9"/>
<g filter="url(#filter2_d_1275_4866)">
<ellipse cx="103.968" cy="81.0751" rx="10" ry="15" transform="rotate(-31.1756 103.968 81.0751)" fill="#CAA986"/>
</g>
<ellipse cx="103.441" cy="71.7513" rx="1.875" ry="2.25" transform="rotate(-31.1756 103.441 71.7513)" fill="#E6C199"/>
<g filter="url(#filter3_d_1275_4866)">
<ellipse cx="87.697" cy="84.6073" rx="10" ry="15" transform="rotate(-31.1756 87.697 84.6073)" fill="#CAA986"/>
</g>
<ellipse cx="87.1701" cy="75.2835" rx="1.875" ry="2.25" transform="rotate(-31.1756 87.1701 75.2835)" fill="#E6C199"/>
<path d="M74.5 86L182.5 75L193 206H56L74.5 86Z" fill="#BF6AF5"/>
<path d="M62.5805 201.5L78.7765 93.4493L173.268 83.5508L182.46 201.5H62.5805Z" stroke="#7217AA"/>
<g filter="url(#filter4_d_1275_4866)">
<ellipse cx="64.9095" cy="189.539" rx="22.9685" ry="22.0258" transform="rotate(-16.8357 64.9095 189.539)" fill="#921DDA"/>
<ellipse cx="64.3633" cy="187.734" rx="22.9685" ry="22.0258" transform="rotate(-16.8357 64.3633 187.734)" fill="#B34DF3"/>
<path fill-rule="evenodd" clip-rule="evenodd" d="M41.5944 184.387C43.4155 176.203 49.3968 169.251 57.8852 166.682C66.9155 163.95 76.3351 166.919 82.3833 173.536C80.5621 181.719 74.5808 188.672 66.0925 191.24C57.0622 193.973 47.6425 191.003 41.5944 184.387Z" fill="#FAFAFA" fill-opacity="0.4"/>
<path d="M81.9686 182.407C84.7722 191.672 79.2215 201.624 69.4601 204.578C59.6988 207.532 49.5616 202.327 46.7581 193.062C43.9545 183.797 49.5053 173.845 59.2666 170.891C69.0279 167.937 79.1651 173.142 81.9686 182.407Z" fill="#B34DF3" stroke="#921DDA" stroke-width="2"/>
<mask id="path-31-inside-1_1275_4866" fill="white">
<path fill-rule="evenodd" clip-rule="evenodd" d="M82.9226 182.118C82.8917 182.009 82.8596 181.899 82.8264 181.789C79.8516 171.958 69.1293 166.504 58.8776 169.606C48.6259 172.708 42.7268 183.192 45.7016 193.023C45.7348 193.133 45.7689 193.242 45.804 193.35C43.0574 183.616 48.9387 173.33 59.0762 170.262C69.2136 167.194 79.8111 172.494 82.9226 182.118Z"/>
</mask>
<path fill-rule="evenodd" clip-rule="evenodd" d="M82.9226 182.118C82.8917 182.009 82.8596 181.899 82.8264 181.789C79.8516 171.958 69.1293 166.504 58.8776 169.606C48.6259 172.708 42.7268 183.192 45.7016 193.023C45.7348 193.133 45.7689 193.242 45.804 193.35C43.0574 183.616 48.9387 173.33 59.0762 170.262C69.2136 167.194 79.8111 172.494 82.9226 182.118Z" fill="#B34DF3"/>
<path d="M82.9226 182.118L78.1651 183.656L87.7347 180.761L82.9226 182.118ZM45.804 193.35L41.0464 194.888L50.6161 191.993L45.804 193.35ZM78.0407 183.237C78.0648 183.317 78.088 183.397 78.1105 183.476L87.7347 180.761C87.6953 180.621 87.6544 180.481 87.6121 180.341L78.0407 183.237ZM60.3257 174.391C68.1254 172.031 75.9223 176.237 78.0407 183.237L87.6121 180.341C83.7809 167.68 70.1333 160.976 57.4295 164.82L60.3257 174.391ZM50.4873 191.575C48.3688 184.574 52.5261 176.752 60.3257 174.391L57.4295 164.82C44.7257 168.664 37.0847 181.81 40.9159 194.471L50.4873 191.575ZM50.5615 191.812C50.5361 191.734 50.5114 191.655 50.4873 191.575L40.9159 194.471C40.9582 194.611 41.0017 194.75 41.0464 194.888L50.5615 191.812ZM50.6161 191.993C48.6597 185.058 52.814 177.381 60.5243 175.048L57.628 165.476C45.0635 169.278 37.4552 182.173 40.9918 194.708L50.6161 191.993ZM60.5243 175.048C68.2347 172.715 75.9487 176.801 78.1651 183.656L87.6802 180.58C83.6736 168.187 70.1926 161.674 57.628 165.476L60.5243 175.048Z" fill="#921DDA" mask="url(#path-31-inside-1_1275_4866)"/>
</g>
<g filter="url(#filter5_d_1275_4866)">
<ellipse cx="181.91" cy="191.539" rx="22.9685" ry="22.0258" transform="rotate(-16.8357 181.91 191.539)" fill="#921DDA"/>
<ellipse cx="181.363" cy="189.734" rx="22.9685" ry="22.0258" transform="rotate(-16.8357 181.363 189.734)" fill="#B34DF3"/>
<path fill-rule="evenodd" clip-rule="evenodd" d="M158.594 186.387C160.416 178.203 166.397 171.251 174.885 168.682C183.915 165.95 193.335 168.919 199.383 175.536C197.562 183.719 191.581 190.672 183.092 193.24C174.062 195.973 164.643 193.003 158.594 186.387Z" fill="#FAFAFA" fill-opacity="0.4"/>
<path d="M198.969 184.407C201.772 193.672 196.221 203.624 186.46 206.578C176.699 209.532 166.562 204.327 163.758 195.062C160.955 185.797 166.505 175.845 176.267 172.891C186.028 169.937 196.165 175.142 198.969 184.407Z" fill="#B34DF3" stroke="#921DDA" stroke-width="2"/>
<mask id="path-37-inside-2_1275_4866" fill="white">
<path fill-rule="evenodd" clip-rule="evenodd" d="M199.923 184.118C199.892 184.009 199.86 183.899 199.826 183.789C196.852 173.958 186.129 168.504 175.878 171.606C165.626 174.708 159.727 185.192 162.702 195.023C162.735 195.133 162.769 195.242 162.804 195.35C160.057 185.616 165.939 175.33 176.076 172.262C186.214 169.194 196.811 174.494 199.923 184.118Z"/>
</mask>
<path fill-rule="evenodd" clip-rule="evenodd" d="M199.923 184.118C199.892 184.009 199.86 183.899 199.826 183.789C196.852 173.958 186.129 168.504 175.878 171.606C165.626 174.708 159.727 185.192 162.702 195.023C162.735 195.133 162.769 195.242 162.804 195.35C160.057 185.616 165.939 175.33 176.076 172.262C186.214 169.194 196.811 174.494 199.923 184.118Z" fill="#B34DF3"/>
<path d="M199.923 184.118L195.165 185.656L204.735 182.761L199.923 184.118ZM162.804 195.35L158.046 196.888L167.616 193.993L162.804 195.35ZM195.041 185.237C195.065 185.317 195.088 185.397 195.111 185.476L204.735 182.761C204.695 182.621 204.654 182.481 204.612 182.341L195.041 185.237ZM177.326 176.391C185.125 174.031 192.922 178.237 195.041 185.237L204.612 182.341C200.781 169.68 187.133 162.976 174.429 166.82L177.326 176.391ZM167.487 193.575C165.369 186.574 169.526 178.752 177.326 176.391L174.429 166.82C161.726 170.664 154.085 183.81 157.916 196.471L167.487 193.575ZM167.562 193.812C167.536 193.734 167.511 193.655 167.487 193.575L157.916 196.471C157.958 196.611 158.002 196.75 158.046 196.888L167.562 193.812ZM167.616 193.993C165.66 187.058 169.814 179.381 177.524 177.048L174.628 167.476C162.063 171.278 154.455 184.173 157.992 196.708L167.616 193.993ZM177.524 177.048C185.235 174.715 192.949 178.801 195.165 185.656L204.68 182.58C200.674 170.187 187.193 163.674 174.628 167.476L177.524 177.048Z" fill="#921DDA" mask="url(#path-37-inside-2_1275_4866)"/>
</g>
<defs>
<filter id="filter0_d_1275_4866" x="140" y="70.0049" width="17" height="21" filterUnits="userSpaceOnUse" color-interpolation-filters="sRGB">
<feFlood flood-opacity="0" result="BackgroundImageFix"/>
<feColorMatrix in="SourceAlpha" type="matrix" values="0 0 0 0 0 0 0 0 0 0 0 0 0 0 0 0 0 0 127 0" result="hardAlpha"/>
<feOffset dy="4"/>
<feComposite in2="hardAlpha" operator="out"/>
<feColorMatrix type="matrix" values="0 0 0 0 0 0 0 0 0 0 0 0 0 0 0 0 0 0 0.25 0"/>
<feBlend mode="normal" in2="BackgroundImageFix" result="effect1_dropShadow_1275_4866"/>
<feBlend mode="normal" in="SourceGraphic" in2="effect1_dropShadow_1275_4866" result="shape"/>
</filter>
<filter id="filter1_d_1275_4866" x="154" y="68.999" width="17" height="21" filterUnits="userSpaceOnUse" color-interpolation-filters="sRGB">
<feFlood flood-opacity="0" result="BackgroundImageFix"/>
<feColorMatrix in="SourceAlpha" type="matrix" values="0 0 0 0 0 0 0 0 0 0 0 0 0 0 0 0 0 0 127 0" result="hardAlpha"/>
<feOffset dy="4"/>
<feComposite in2="hardAlpha" operator="out"/>
<feColorMatrix type="matrix" values="0 0 0 0 0 0 0 0 0 0 0 0 0 0 0 0 0 0 0.25 0"/>
<feBlend mode="normal" in2="BackgroundImageFix" result="effect1_dropShadow_1275_4866"/>
<feBlend mode="normal" in="SourceGraphic" in2="effect1_dropShadow_1275_4866" result="shape"/>
</filter>
<filter id="filter2_d_1275_4866" x="91.4136" y="67.2334" width="24.1084" height="28.6836" filterUnits="userSpaceOnUse" color-interpolation-filters="sRGB">
<feFlood flood-opacity="0" result="BackgroundImageFix"/>
<feColorMatrix in="SourceAlpha" type="matrix" values="0 0 0 0 0 0 0 0 0 0 0 0 0 0 0 0 0 0 127 0" result="hardAlpha"/>
<feOffset dx="-1" dy="1"/>
<feComposite in2="hardAlpha" operator="out"/>
<feColorMatrix type="matrix" values="0 0 0 0 0.229167 0 0 0 0 0.120219 0 0 0 0 0 0 0 0 1 0"/>
<feBlend mode="normal" in2="BackgroundImageFix" result="effect1_dropShadow_1275_4866"/>
<feBlend mode="normal" in="SourceGraphic" in2="effect1_dropShadow_1275_4866" result="shape"/>
</filter>
<filter id="filter3_d_1275_4866" x="75.1428" y="70.7656" width="24.1084" height="28.6836" filterUnits="userSpaceOnUse" color-interpolation-filters="sRGB">
<feFlood flood-opacity="0" result="BackgroundImageFix"/>
<feColorMatrix in="SourceAlpha" type="matrix" values="0 0 0 0 0 0 0 0 0 0 0 0 0 0 0 0 0 0 127 0" result="hardAlpha"/>
<feOffset dx="-1" dy="1"/>
<feComposite in2="hardAlpha" operator="out"/>
<feColorMatrix type="matrix" values="0 0 0 0 0.229167 0 0 0 0 0.120219 0 0 0 0 0 0 0 0 1 0"/>
<feBlend mode="normal" in2="BackgroundImageFix" result="effect1_dropShadow_1275_4866"/>
<feBlend mode="normal" in="SourceGraphic" in2="effect1_dropShadow_1275_4866" result="shape"/>
</filter>
<filter id="filter4_d_1275_4866" x="12" y="147" width="105.273" height="105.272" filterUnits="userSpaceOnUse" color-interpolation-filters="sRGB">
<feFlood flood-opacity="0" result="BackgroundImageFix"/>
<feColorMatrix in="SourceAlpha" type="matrix" values="0 0 0 0 0 0 0 0 0 0 0 0 0 0 0 0 0 0 127 0" result="hardAlpha"/>
<feOffset dy="11"/>
<feGaussianBlur stdDeviation="12"/>
<feComposite in2="hardAlpha" operator="out"/>
<feColorMatrix type="matrix" values="0 0 0 0 0.0791667 0 0 0 0 0.0791667 0 0 0 0 0.0791667 0 0 0 0.25 0"/>
<feBlend mode="normal" in2="BackgroundImageFix" result="effect1_dropShadow_1275_4866"/>
<feBlend mode="normal" in="SourceGraphic" in2="effect1_dropShadow_1275_4866" result="shape"/>
</filter>
<filter id="filter5_d_1275_4866" x="129" y="149" width="105.273" height="105.272" filterUnits="userSpaceOnUse" color-interpolation-filters="sRGB">
<feFlood flood-opacity="0" result="BackgroundImageFix"/>
<feColorMatrix in="SourceAlpha" type="matrix" values="0 0 0 0 0 0 0 0 0 0 0 0 0 0 0 0 0 0 127 0" result="hardAlpha"/>
<feOffset dy="11"/>
<feGaussianBlur stdDeviation="12"/>
<feComposite in2="hardAlpha" operator="out"/>
<feColorMatrix type="matrix" values="0 0 0 0 0.0791667 0 0 0 0 0.0791667 0 0 0 0 0.0791667 0 0 0 0.25 0"/>
<feBlend mode="normal" in2="BackgroundImageFix" result="effect1_dropShadow_1275_4866"/>
<feBlend mode="normal" in="SourceGraphic" in2="effect1_dropShadow_1275_4866" result="shape"/>
</filter>
<linearGradient id="paint0_linear_1275_4866" x1="92.7737" y1="46" x2="94.0845" y2="68.0461" gradientUnits="userSpaceOnUse">
<stop stop-color="#52FF00"/>
<stop offset="1" stop-color="#00BE85" stop-opacity="0"/>
</linearGradient>
<linearGradient id="paint1_linear_1275_4866" x1="113.601" y1="29" x2="113.601" y2="96.5" gradientUnits="userSpaceOnUse">
<stop stop-color="#00BE85"/>
<stop offset="1" stop-color="#00BE85" stop-opacity="0"/>
</linearGradient>
<linearGradient id="paint2_linear_1275_4866" x1="167.652" y1="48" x2="166" y2="70" gradientUnits="userSpaceOnUse">
<stop stop-color="#52FF00"/>
<stop offset="1" stop-color="#00BE85" stop-opacity="0"/>
</linearGradient>
<linearGradient id="paint3_linear_1275_4866" x1="151.163" y1="31" x2="151.163" y2="98.5" gradientUnits="userSpaceOnUse">
<stop stop-color="#00BE85"/>
<stop offset="1" stop-color="#00BE85" stop-opacity="0"/>
</linearGradient>
<linearGradient id="paint4_linear_1275_4866" x1="143.683" y1="69.127" x2="143.941" y2="75.8628" gradientUnits="userSpaceOnUse">
<stop offset="0.417566"/>
<stop offset="1" stop-opacity="0"/>
</linearGradient>
<linearGradient id="paint5_linear_1275_4866" x1="138.246" y1="68" x2="138.504" y2="74.7358" gradientUnits="userSpaceOnUse">
<stop offset="0.417566"/>
<stop offset="1" stop-opacity="0"/>
</linearGradient>
<linearGradient id="paint6_linear_1275_4866" x1="157.683" y1="68.1211" x2="157.94" y2="74.8569" gradientUnits="userSpaceOnUse">
<stop offset="0.417566"/>
<stop offset="1" stop-opacity="0"/>
</linearGradient>
</defs>
</svg>
